%TF.GenerationSoftware,KiCad,Pcbnew,9.0.2*%
%TF.CreationDate,2025-06-30T09:26:00+05:30*%
%TF.ProjectId,ATmega328P_DevBoard_V1_Ujwal,41546d65-6761-4333-9238-505f44657642,rev?*%
%TF.SameCoordinates,Original*%
%TF.FileFunction,Plated,1,2,PTH,Mixed*%
%TF.FilePolarity,Positive*%
%FSLAX46Y46*%
G04 Gerber Fmt 4.6, Leading zero omitted, Abs format (unit mm)*
G04 Created by KiCad (PCBNEW 9.0.2) date 2025-06-30 09:26:00*
%MOMM*%
%LPD*%
G01*
G04 APERTURE LIST*
%TA.AperFunction,ViaDrill*%
%ADD10C,0.300000*%
%TD*%
%TA.AperFunction,ComponentDrill*%
%ADD11C,0.800000*%
%TD*%
G04 aperture for slot hole*
%TA.AperFunction,ComponentDrill*%
%ADD12C,1.000000*%
%TD*%
%TA.AperFunction,ComponentDrill*%
%ADD13C,1.000000*%
%TD*%
%TA.AperFunction,ComponentDrill*%
%ADD14C,1.100000*%
%TD*%
G04 APERTURE END LIST*
D10*
X46139400Y-26360300D03*
X51118800Y-73993700D03*
X51563200Y-77442800D03*
X56111500Y-73795600D03*
X63067900Y-88996800D03*
X98000000Y-46500000D03*
D11*
%TO.C,C5*%
X39000000Y-38000000D03*
X39000000Y-40500000D03*
%TO.C,C8*%
X42250000Y-46730000D03*
%TO.C,D2*%
X42690000Y-87050000D03*
%TO.C,R1*%
X42690000Y-91100000D03*
%TO.C,R2*%
X42690000Y-95150000D03*
%TO.C,R4*%
X42690000Y-103250000D03*
%TO.C,R5*%
X42690000Y-107300000D03*
%TO.C,C6*%
X43000000Y-34500000D03*
%TO.C,C8*%
X44750000Y-46730000D03*
%TO.C,C6*%
X45500000Y-34500000D03*
%TO.C,D2*%
X50310000Y-87050000D03*
%TO.C,R1*%
X50310000Y-91100000D03*
%TO.C,R2*%
X50310000Y-95150000D03*
%TO.C,R4*%
X50310000Y-103250000D03*
%TO.C,R5*%
X50310000Y-107300000D03*
%TO.C,C3*%
X53910000Y-91100000D03*
%TO.C,C7*%
X53910000Y-103250000D03*
%TO.C,C3*%
X56410000Y-91100000D03*
%TO.C,C7*%
X56410000Y-103250000D03*
%TO.C,C9*%
X57500000Y-29000000D03*
%TO.C,C11*%
X57500000Y-64500000D03*
X57500000Y-67000000D03*
%TO.C,C1*%
X59000000Y-33500000D03*
%TO.C,C9*%
X60000000Y-29000000D03*
%TO.C,Y1*%
X60880000Y-23185000D03*
%TO.C,C1*%
X61500000Y-33500000D03*
%TO.C,Y1*%
X65760000Y-23185000D03*
%TO.C,C10*%
X79000000Y-28000000D03*
X81500000Y-28000000D03*
%TO.C,C2*%
X83000000Y-90750000D03*
X83000000Y-93250000D03*
%TO.C,U1*%
X89880000Y-71180000D03*
X89880000Y-73720000D03*
X89880000Y-76260000D03*
X89880000Y-78800000D03*
X89880000Y-81340000D03*
X89880000Y-83880000D03*
X89880000Y-86420000D03*
X89880000Y-88960000D03*
X89880000Y-91500000D03*
X89880000Y-94040000D03*
X89880000Y-96580000D03*
X89880000Y-99120000D03*
X89880000Y-101660000D03*
X89880000Y-104200000D03*
X97500000Y-71180000D03*
X97500000Y-73720000D03*
X97500000Y-76260000D03*
X97500000Y-78800000D03*
X97500000Y-81340000D03*
X97500000Y-83880000D03*
X97500000Y-86420000D03*
X97500000Y-88960000D03*
X97500000Y-91500000D03*
X97500000Y-94040000D03*
X97500000Y-96580000D03*
X97500000Y-99120000D03*
X97500000Y-101660000D03*
X97500000Y-104200000D03*
%TO.C,D1*%
X102000000Y-86500000D03*
%TO.C,R3*%
X103500000Y-94310000D03*
%TO.C,D1*%
X109620000Y-86500000D03*
%TO.C,R3*%
X111120000Y-94310000D03*
D12*
%TO.C,J2*%
X34000000Y-27500000D02*
X34000000Y-25500000D01*
X38000000Y-31200000D02*
X36000000Y-31200000D01*
X40000000Y-27500000D02*
X40000000Y-25500000D01*
D13*
%TO.C,J1*%
X72000000Y-68960000D03*
X72000000Y-71500000D03*
X72000000Y-74040000D03*
X72000000Y-76580000D03*
X72000000Y-79120000D03*
X72000000Y-81660000D03*
D14*
%TO.C,SW1*%
X43140000Y-111350000D03*
X43140000Y-115850000D03*
X49640000Y-111350000D03*
X49640000Y-115850000D03*
M02*
