%TF.GenerationSoftware,KiCad,Pcbnew,9.0.2*%
%TF.CreationDate,2025-06-30T09:24:13+05:30*%
%TF.ProjectId,ATmega328P_DevBoard_V1_Ujwal,41546d65-6761-4333-9238-505f44657642,rev?*%
%TF.SameCoordinates,Original*%
%TF.FileFunction,Legend,Bot*%
%TF.FilePolarity,Positive*%
%FSLAX46Y46*%
G04 Gerber Fmt 4.6, Leading zero omitted, Abs format (unit mm)*
G04 Created by KiCad (PCBNEW 9.0.2) date 2025-06-30 09:24:13*
%MOMM*%
%LPD*%
G01*
G04 APERTURE LIST*
G04 Aperture macros list*
%AMRoundRect*
0 Rectangle with rounded corners*
0 $1 Rounding radius*
0 $2 $3 $4 $5 $6 $7 $8 $9 X,Y pos of 4 corners*
0 Add a 4 corners polygon primitive as box body*
4,1,4,$2,$3,$4,$5,$6,$7,$8,$9,$2,$3,0*
0 Add four circle primitives for the rounded corners*
1,1,$1+$1,$2,$3*
1,1,$1+$1,$4,$5*
1,1,$1+$1,$6,$7*
1,1,$1+$1,$8,$9*
0 Add four rect primitives between the rounded corners*
20,1,$1+$1,$2,$3,$4,$5,0*
20,1,$1+$1,$4,$5,$6,$7,0*
20,1,$1+$1,$6,$7,$8,$9,0*
20,1,$1+$1,$8,$9,$2,$3,0*%
G04 Aperture macros list end*
%TA.AperFunction,ComponentPad*%
%ADD10R,3.500000X3.500000*%
%TD*%
%TA.AperFunction,ComponentPad*%
%ADD11RoundRect,0.750000X-0.750000X-1.000000X0.750000X-1.000000X0.750000X1.000000X-0.750000X1.000000X0*%
%TD*%
%TA.AperFunction,ComponentPad*%
%ADD12RoundRect,0.875000X-0.875000X-0.875000X0.875000X-0.875000X0.875000X0.875000X-0.875000X0.875000X0*%
%TD*%
%TA.AperFunction,ComponentPad*%
%ADD13C,1.600000*%
%TD*%
%TA.AperFunction,ComponentPad*%
%ADD14C,1.500000*%
%TD*%
%TA.AperFunction,ComponentPad*%
%ADD15R,1.700000X1.700000*%
%TD*%
%TA.AperFunction,ComponentPad*%
%ADD16C,1.700000*%
%TD*%
%TA.AperFunction,ComponentPad*%
%ADD17C,2.000000*%
%TD*%
%TA.AperFunction,ComponentPad*%
%ADD18RoundRect,0.250000X-0.550000X-0.550000X0.550000X-0.550000X0.550000X0.550000X-0.550000X0.550000X0*%
%TD*%
%TA.AperFunction,ViaPad*%
%ADD19C,0.600000*%
%TD*%
%TA.AperFunction,Conductor*%
%ADD20C,0.200000*%
%TD*%
%ADD21R,3.500000X3.500000*%
%ADD22RoundRect,0.750000X-0.750000X-1.000000X0.750000X-1.000000X0.750000X1.000000X-0.750000X1.000000X0*%
%ADD23RoundRect,0.875000X-0.875000X-0.875000X0.875000X-0.875000X0.875000X0.875000X-0.875000X0.875000X0*%
%ADD24C,1.600000*%
%ADD25C,1.500000*%
%ADD26R,1.700000X1.700000*%
%ADD27C,1.700000*%
%ADD28C,2.000000*%
%ADD29RoundRect,0.250000X-0.550000X-0.550000X0.550000X-0.550000X0.550000X0.550000X-0.550000X0.550000X0*%
%TA.AperFunction,SMDPad,CuDef*%
%ADD30RoundRect,0.375000X-0.625000X-0.375000X0.625000X-0.375000X0.625000X0.375000X-0.625000X0.375000X0*%
%TD*%
%TA.AperFunction,SMDPad,CuDef*%
%ADD31RoundRect,0.500000X-0.500000X-1.400000X0.500000X-1.400000X0.500000X1.400000X-0.500000X1.400000X0*%
%TD*%
%ADD32RoundRect,0.375000X-0.625000X-0.375000X0.625000X-0.375000X0.625000X0.375000X-0.625000X0.375000X0*%
%ADD33RoundRect,0.500000X-0.500000X-1.400000X0.500000X-1.400000X0.500000X1.400000X-0.500000X1.400000X0*%
%ADD34C,0.150000*%
%ADD35C,0.120000*%
%TA.AperFunction,Profile*%
%ADD36C,0.050000*%
%TD*%
G04 APERTURE END LIST*
D10*
%TO.P,J2,1*%
%TO.N,Net-(U2-VI)*%
X40000000Y-26500000D03*
D11*
%TO.P,J2,2*%
%TO.N,GND*%
X34000000Y-26500000D03*
D12*
%TO.P,J2,3*%
%TO.N,unconnected-(J2-Pad3)*%
X37000000Y-31200000D03*
%TD*%
D13*
%TO.P,C3,1*%
%TO.N,Net-(J1-Pin_6)*%
X53910000Y-91100000D03*
%TO.P,C3,2*%
%TO.N,GND*%
X56410000Y-91100000D03*
%TD*%
%TO.P,C8,1*%
%TO.N,GND*%
X42250000Y-46730000D03*
%TO.P,C8,2*%
%TO.N,Net-(J1-Pin_5)*%
X44750000Y-46730000D03*
%TD*%
%TO.P,C5,1*%
%TO.N,GND*%
X39000000Y-40500000D03*
%TO.P,C5,2*%
%TO.N,Net-(U2-VI)*%
X39000000Y-38000000D03*
%TD*%
%TO.P,C2,1*%
%TO.N,Net-(U1-XTAL2{slash}PB7)*%
X83000000Y-93250000D03*
%TO.P,C2,2*%
%TO.N,GND*%
X83000000Y-90750000D03*
%TD*%
D14*
%TO.P,Y1,1,1*%
%TO.N,Net-(U1-XTAL1{slash}PB6)*%
X60880000Y-23185000D03*
%TO.P,Y1,2,2*%
%TO.N,Net-(U1-XTAL2{slash}PB7)*%
X65760000Y-23185000D03*
%TD*%
D13*
%TO.P,R4,1*%
%TO.N,/+5v*%
X42690000Y-103250000D03*
%TO.P,R4,2*%
%TO.N,Net-(U1-PC5)*%
X50310000Y-103250000D03*
%TD*%
%TO.P,C10,1*%
%TO.N,/+5v*%
X79000000Y-28000000D03*
%TO.P,C10,2*%
%TO.N,GND*%
X81500000Y-28000000D03*
%TD*%
%TO.P,C11,1*%
%TO.N,/+5v*%
X57500000Y-64500000D03*
%TO.P,C11,2*%
%TO.N,GND*%
X57500000Y-67000000D03*
%TD*%
%TO.P,D2,1,K*%
%TO.N,GND*%
X42690000Y-87050000D03*
%TO.P,D2,2,A*%
%TO.N,Net-(D2-A)*%
X50310000Y-87050000D03*
%TD*%
D15*
%TO.P,J1,1,Pin_1*%
%TO.N,GND*%
X72000000Y-68960000D03*
D16*
%TO.P,J1,2,Pin_2*%
%TO.N,unconnected-(J1-Pin_2-Pad2)*%
X72000000Y-71500000D03*
%TO.P,J1,3,Pin_3*%
%TO.N,/+5v*%
X72000000Y-74040000D03*
%TO.P,J1,4,Pin_4*%
%TO.N,Net-(J1-Pin_4)*%
X72000000Y-76580000D03*
%TO.P,J1,5,Pin_5*%
%TO.N,Net-(J1-Pin_5)*%
X72000000Y-79120000D03*
%TO.P,J1,6,Pin_6*%
%TO.N,Net-(J1-Pin_6)*%
X72000000Y-81660000D03*
%TD*%
D17*
%TO.P,SW1,1,1*%
%TO.N,/+5v*%
X43140000Y-111350000D03*
X49640000Y-111350000D03*
%TO.P,SW1,2,2*%
%TO.N,GND*%
X43140000Y-115850000D03*
X49640000Y-115850000D03*
%TD*%
D13*
%TO.P,D1,1,K*%
%TO.N,GND*%
X102000000Y-86500000D03*
%TO.P,D1,2,A*%
%TO.N,Net-(D1-A)*%
X109620000Y-86500000D03*
%TD*%
%TO.P,C9,1*%
%TO.N,/+5v*%
X57500000Y-29000000D03*
%TO.P,C9,2*%
%TO.N,GND*%
X60000000Y-29000000D03*
%TD*%
%TO.P,C1,1*%
%TO.N,Net-(U1-XTAL1{slash}PB6)*%
X59000000Y-33500000D03*
%TO.P,C1,2*%
%TO.N,GND*%
X61500000Y-33500000D03*
%TD*%
%TO.P,C7,1*%
%TO.N,GND*%
X53910000Y-103250000D03*
%TO.P,C7,2*%
%TO.N,/+5v*%
X56410000Y-103250000D03*
%TD*%
%TO.P,R1,1*%
%TO.N,Net-(U1-PC4)*%
X42690000Y-91100000D03*
%TO.P,R1,2*%
%TO.N,/+5v*%
X50310000Y-91100000D03*
%TD*%
%TO.P,C6,1*%
%TO.N,GND*%
X43000000Y-34500000D03*
%TO.P,C6,2*%
%TO.N,/+5v*%
X45500000Y-34500000D03*
%TD*%
D18*
%TO.P,U1,1,~{RESET}/PC6*%
%TO.N,/+5v*%
X89880000Y-71180000D03*
D13*
%TO.P,U1,2,PD0*%
%TO.N,Net-(J1-Pin_4)*%
X89880000Y-73720000D03*
%TO.P,U1,3,PD1*%
%TO.N,Net-(J1-Pin_5)*%
X89880000Y-76260000D03*
%TO.P,U1,4,PD2*%
%TO.N,unconnected-(U1-PD2-Pad4)*%
X89880000Y-78800000D03*
%TO.P,U1,5,PD3*%
%TO.N,unconnected-(U1-PD3-Pad5)*%
X89880000Y-81340000D03*
%TO.P,U1,6,PD4*%
%TO.N,unconnected-(U1-PD4-Pad6)*%
X89880000Y-83880000D03*
%TO.P,U1,7,VCC*%
%TO.N,/+5v*%
X89880000Y-86420000D03*
%TO.P,U1,8,GND*%
%TO.N,GND*%
X89880000Y-88960000D03*
%TO.P,U1,9,XTAL1/PB6*%
%TO.N,Net-(U1-XTAL1{slash}PB6)*%
X89880000Y-91500000D03*
%TO.P,U1,10,XTAL2/PB7*%
%TO.N,Net-(U1-XTAL2{slash}PB7)*%
X89880000Y-94040000D03*
%TO.P,U1,11,PD5*%
%TO.N,unconnected-(U1-PD5-Pad11)*%
X89880000Y-96580000D03*
%TO.P,U1,12,PD6*%
%TO.N,unconnected-(U1-PD6-Pad12)*%
X89880000Y-99120000D03*
%TO.P,U1,13,PD7*%
%TO.N,unconnected-(U1-PD7-Pad13)*%
X89880000Y-101660000D03*
%TO.P,U1,14,PB0*%
%TO.N,unconnected-(U1-PB0-Pad14)*%
X89880000Y-104200000D03*
%TO.P,U1,15,PB1*%
%TO.N,unconnected-(U1-PB1-Pad15)*%
X97500000Y-104200000D03*
%TO.P,U1,16,PB2*%
%TO.N,unconnected-(U1-PB2-Pad16)*%
X97500000Y-101660000D03*
%TO.P,U1,17,PB3*%
%TO.N,unconnected-(U1-PB3-Pad17)*%
X97500000Y-99120000D03*
%TO.P,U1,18,PB4*%
%TO.N,unconnected-(U1-PB4-Pad18)*%
X97500000Y-96580000D03*
%TO.P,U1,19,PB5*%
%TO.N,Net-(U1-PB5)*%
X97500000Y-94040000D03*
%TO.P,U1,20,AVCC*%
%TO.N,/+5v*%
X97500000Y-91500000D03*
%TO.P,U1,21,AREF*%
X97500000Y-88960000D03*
%TO.P,U1,22,GND*%
%TO.N,GND*%
X97500000Y-86420000D03*
%TO.P,U1,23,PC0*%
%TO.N,unconnected-(U1-PC0-Pad23)*%
X97500000Y-83880000D03*
%TO.P,U1,24,PC1*%
%TO.N,unconnected-(U1-PC1-Pad24)*%
X97500000Y-81340000D03*
%TO.P,U1,25,PC2*%
%TO.N,unconnected-(U1-PC2-Pad25)*%
X97500000Y-78800000D03*
%TO.P,U1,26,PC3*%
%TO.N,unconnected-(U1-PC3-Pad26)*%
X97500000Y-76260000D03*
%TO.P,U1,27,PC4*%
%TO.N,Net-(U1-PC4)*%
X97500000Y-73720000D03*
%TO.P,U1,28,PC5*%
%TO.N,Net-(U1-PC5)*%
X97500000Y-71180000D03*
%TD*%
%TO.P,R5,1*%
%TO.N,/+5v*%
X42690000Y-107300000D03*
%TO.P,R5,2*%
%TO.N,Net-(D2-A)*%
X50310000Y-107300000D03*
%TD*%
%TO.P,R3,1*%
%TO.N,Net-(U1-PB5)*%
X103500000Y-94310000D03*
%TO.P,R3,2*%
%TO.N,Net-(D1-A)*%
X111120000Y-94310000D03*
%TD*%
%TO.P,R2,1*%
%TO.N,/+5v*%
X42690000Y-95150000D03*
%TO.P,R2,2*%
%TO.N,GND*%
X50310000Y-95150000D03*
%TD*%
D19*
%TO.N,*%
X98000000Y-46500000D03*
%TO.N,Net-(U1-XTAL1{slash}PB6)*%
X63067900Y-88996800D03*
%TO.N,Net-(U2-VI)*%
X46139400Y-26360300D03*
%TO.N,/+5v*%
X56111500Y-73795600D03*
%TO.N,Net-(J1-Pin_5)*%
X51563200Y-77442800D03*
%TO.N,Net-(U1-PC5)*%
X51118800Y-73993700D03*
%TD*%
D20*
%TO.N,GND*%
X87505900Y-91100000D02*
X89023000Y-92617100D01*
X56410000Y-91100000D02*
X72090200Y-91100000D01*
X52110000Y-91288600D02*
X47871400Y-87050000D01*
X91025900Y-90105900D02*
X89880000Y-88960000D01*
X89023000Y-92617100D02*
X90379400Y-92617100D01*
X60122400Y-29122400D02*
X60000000Y-29000000D01*
X88731300Y-85952200D02*
X88731300Y-87811300D01*
X47871400Y-87050000D02*
X42690000Y-87050000D01*
X39000000Y-40500000D02*
X54500000Y-40500000D01*
X55308300Y-92201700D02*
X56410000Y-91100000D01*
X81500000Y-28000000D02*
X80377600Y-29122400D01*
X97500000Y-86420000D02*
X96391800Y-85311800D01*
X50310000Y-95150000D02*
X52110000Y-93350000D01*
X72000000Y-68960000D02*
X59460000Y-68960000D01*
X43140000Y-115850000D02*
X49640000Y-115850000D01*
X52110000Y-93350000D02*
X52110000Y-92201700D01*
X102000000Y-86500000D02*
X97580000Y-86500000D01*
X97580000Y-86500000D02*
X97500000Y-86420000D01*
X89371700Y-85311800D02*
X88731300Y-85952200D01*
X96391800Y-85311800D02*
X89371700Y-85311800D01*
X72090200Y-91100000D02*
X87505900Y-91100000D01*
X54500000Y-40500000D02*
X61500000Y-33500000D01*
X52110000Y-92201700D02*
X52110000Y-91288600D01*
X91025900Y-91970600D02*
X91025900Y-90105900D01*
X88731300Y-87811300D02*
X89880000Y-88960000D01*
X59460000Y-68960000D02*
X57500000Y-67000000D01*
X80377600Y-29122400D02*
X60122400Y-29122400D01*
X90379400Y-92617100D02*
X91025900Y-91970600D01*
X72090200Y-91100000D02*
X82650000Y-91100000D01*
X52110000Y-92201700D02*
X55308300Y-92201700D01*
X82650000Y-91100000D02*
X83000000Y-90750000D01*
%TO.N,Net-(U1-XTAL1{slash}PB6)*%
X63067900Y-88996800D02*
X87376800Y-88996800D01*
X87376800Y-88996800D02*
X89880000Y-91500000D01*
%TO.N,Net-(U1-XTAL2{slash}PB7)*%
X89090000Y-93250000D02*
X89880000Y-94040000D01*
X83000000Y-93250000D02*
X89090000Y-93250000D01*
%TO.N,Net-(J1-Pin_6)*%
X72000000Y-81660000D02*
X63350000Y-81660000D01*
X63350000Y-81660000D02*
X53910000Y-91100000D01*
%TO.N,Net-(U2-VI)*%
X42051700Y-26500000D02*
X42191400Y-26360300D01*
X42191400Y-26360300D02*
X46139400Y-26360300D01*
X40000000Y-26500000D02*
X42051700Y-26500000D01*
%TO.N,/+5v*%
X58654900Y-27845100D02*
X57500000Y-29000000D01*
X50310000Y-91100000D02*
X46260000Y-95150000D01*
X49640000Y-111350000D02*
X43140000Y-111350000D01*
X55270900Y-104389100D02*
X43829100Y-104389100D01*
X87020000Y-74040000D02*
X89880000Y-71180000D01*
X89880000Y-86420000D02*
X92420000Y-88960000D01*
X46260000Y-95150000D02*
X42690000Y-95150000D01*
X56410000Y-103250000D02*
X55270900Y-104389100D01*
X92420000Y-88960000D02*
X97500000Y-88960000D01*
X51000000Y-29000000D02*
X57500000Y-29000000D01*
X78845100Y-27845100D02*
X58654900Y-27845100D01*
X79000000Y-28000000D02*
X78845100Y-27845100D01*
X72000000Y-74040000D02*
X56355900Y-74040000D01*
X43829100Y-104389100D02*
X42690000Y-103250000D01*
X56355900Y-74040000D02*
X56111500Y-73795600D01*
X45500000Y-34500000D02*
X51000000Y-29000000D01*
X72000000Y-74040000D02*
X87020000Y-74040000D01*
%TO.N,Net-(J1-Pin_5)*%
X89880000Y-76260000D02*
X87020000Y-79120000D01*
X51563200Y-77442800D02*
X53240400Y-79120000D01*
X87020000Y-79120000D02*
X72000000Y-79120000D01*
X53240400Y-79120000D02*
X72000000Y-79120000D01*
%TO.N,Net-(J1-Pin_4)*%
X89880000Y-73720000D02*
X87020000Y-76580000D01*
X87020000Y-76580000D02*
X72000000Y-76580000D01*
%TO.N,Net-(U1-PC4)*%
X51306200Y-76793500D02*
X64696800Y-76793500D01*
X41553300Y-86546400D02*
X51306200Y-76793500D01*
X86390900Y-77784000D02*
X89184900Y-74990000D01*
X64696800Y-76793500D02*
X65687300Y-77784000D01*
X96230000Y-74990000D02*
X97500000Y-73720000D01*
X65687300Y-77784000D02*
X86390900Y-77784000D01*
X89184900Y-74990000D02*
X96230000Y-74990000D01*
X41553300Y-89963300D02*
X41553300Y-86546400D01*
X42690000Y-91100000D02*
X41553300Y-89963300D01*
%TO.N,Net-(U1-PB5)*%
X97770000Y-94310000D02*
X97500000Y-94040000D01*
X103500000Y-94310000D02*
X97770000Y-94310000D01*
%TO.N,Net-(U1-PC5)*%
X77110600Y-70075000D02*
X74415600Y-72770000D01*
X74415600Y-72770000D02*
X52342500Y-72770000D01*
X97500000Y-71180000D02*
X96395000Y-70075000D01*
X96395000Y-70075000D02*
X77110600Y-70075000D01*
X52342500Y-72770000D02*
X51118800Y-73993700D01*
%TD*%
D21*
%TO.C,J2*%
X40000000Y-26500000D03*
D22*
X34000000Y-26500000D03*
D23*
X37000000Y-31200000D03*
%TD*%
D24*
%TO.C,C3*%
X53910000Y-91100000D03*
X56410000Y-91100000D03*
%TD*%
%TO.C,C8*%
X42250000Y-46730000D03*
X44750000Y-46730000D03*
%TD*%
%TO.C,C5*%
X39000000Y-40500000D03*
X39000000Y-38000000D03*
%TD*%
%TO.C,C2*%
X83000000Y-93250000D03*
X83000000Y-90750000D03*
%TD*%
D25*
%TO.C,Y1*%
X60880000Y-23185000D03*
X65760000Y-23185000D03*
%TD*%
D24*
%TO.C,R4*%
X42690000Y-103250000D03*
X50310000Y-103250000D03*
%TD*%
%TO.C,C10*%
X79000000Y-28000000D03*
X81500000Y-28000000D03*
%TD*%
%TO.C,C11*%
X57500000Y-64500000D03*
X57500000Y-67000000D03*
%TD*%
%TO.C,D2*%
X42690000Y-87050000D03*
X50310000Y-87050000D03*
%TD*%
D26*
%TO.C,J1*%
X72000000Y-68960000D03*
D27*
X72000000Y-71500000D03*
X72000000Y-74040000D03*
X72000000Y-76580000D03*
X72000000Y-79120000D03*
X72000000Y-81660000D03*
%TD*%
D28*
%TO.C,SW1*%
X43140000Y-111350000D03*
X49640000Y-111350000D03*
X43140000Y-115850000D03*
X49640000Y-115850000D03*
%TD*%
D24*
%TO.C,D1*%
X102000000Y-86500000D03*
X109620000Y-86500000D03*
%TD*%
%TO.C,C9*%
X57500000Y-29000000D03*
X60000000Y-29000000D03*
%TD*%
%TO.C,C1*%
X59000000Y-33500000D03*
X61500000Y-33500000D03*
%TD*%
%TO.C,C7*%
X53910000Y-103250000D03*
X56410000Y-103250000D03*
%TD*%
%TO.C,R1*%
X42690000Y-91100000D03*
X50310000Y-91100000D03*
%TD*%
%TO.C,C6*%
X43000000Y-34500000D03*
X45500000Y-34500000D03*
%TD*%
D29*
%TO.C,U1*%
X89880000Y-71180000D03*
D24*
X89880000Y-73720000D03*
X89880000Y-76260000D03*
X89880000Y-78800000D03*
X89880000Y-81340000D03*
X89880000Y-83880000D03*
X89880000Y-86420000D03*
X89880000Y-88960000D03*
X89880000Y-91500000D03*
X89880000Y-94040000D03*
X89880000Y-96580000D03*
X89880000Y-99120000D03*
X89880000Y-101660000D03*
X89880000Y-104200000D03*
X97500000Y-104200000D03*
X97500000Y-101660000D03*
X97500000Y-99120000D03*
X97500000Y-96580000D03*
X97500000Y-94040000D03*
X97500000Y-91500000D03*
X97500000Y-88960000D03*
X97500000Y-86420000D03*
X97500000Y-83880000D03*
X97500000Y-81340000D03*
X97500000Y-78800000D03*
X97500000Y-76260000D03*
X97500000Y-73720000D03*
X97500000Y-71180000D03*
%TD*%
%TO.C,R5*%
X42690000Y-107300000D03*
X50310000Y-107300000D03*
%TD*%
%TO.C,R3*%
X103500000Y-94310000D03*
X111120000Y-94310000D03*
%TD*%
%TO.C,R2*%
X42690000Y-95150000D03*
X50310000Y-95150000D03*
%TD*%
D10*
%TO.P,J2,1*%
%TO.N,Net-(U2-VI)*%
X40000000Y-26500000D03*
D11*
%TO.P,J2,2*%
%TO.N,GND*%
X34000000Y-26500000D03*
D12*
%TO.P,J2,3*%
%TO.N,unconnected-(J2-Pad3)*%
X37000000Y-31200000D03*
%TD*%
D13*
%TO.P,C3,1*%
%TO.N,Net-(J1-Pin_6)*%
X53910000Y-91100000D03*
%TO.P,C3,2*%
%TO.N,GND*%
X56410000Y-91100000D03*
%TD*%
%TO.P,C8,1*%
%TO.N,GND*%
X42250000Y-46730000D03*
%TO.P,C8,2*%
%TO.N,Net-(J1-Pin_5)*%
X44750000Y-46730000D03*
%TD*%
%TO.P,C5,1*%
%TO.N,GND*%
X39000000Y-40500000D03*
%TO.P,C5,2*%
%TO.N,Net-(U2-VI)*%
X39000000Y-38000000D03*
%TD*%
%TO.P,C2,1*%
%TO.N,Net-(U1-XTAL2{slash}PB7)*%
X83000000Y-93250000D03*
%TO.P,C2,2*%
%TO.N,GND*%
X83000000Y-90750000D03*
%TD*%
D14*
%TO.P,Y1,1,1*%
%TO.N,Net-(U1-XTAL1{slash}PB6)*%
X60880000Y-23185000D03*
%TO.P,Y1,2,2*%
%TO.N,Net-(U1-XTAL2{slash}PB7)*%
X65760000Y-23185000D03*
%TD*%
D30*
%TO.P,U2,1,ADJ*%
%TO.N,unconnected-(U2-ADJ-Pad1)*%
X47850000Y-21700000D03*
%TO.P,U2,2,VO*%
%TO.N,/+5v*%
X47850000Y-24000000D03*
D31*
X54150000Y-24000000D03*
D30*
%TO.P,U2,3,VI*%
%TO.N,Net-(U2-VI)*%
X47850000Y-26300000D03*
%TD*%
D13*
%TO.P,R4,1*%
%TO.N,/+5v*%
X42690000Y-103250000D03*
%TO.P,R4,2*%
%TO.N,Net-(U1-PC5)*%
X50310000Y-103250000D03*
%TD*%
%TO.P,C10,1*%
%TO.N,/+5v*%
X79000000Y-28000000D03*
%TO.P,C10,2*%
%TO.N,GND*%
X81500000Y-28000000D03*
%TD*%
%TO.P,C11,1*%
%TO.N,/+5v*%
X57500000Y-64500000D03*
%TO.P,C11,2*%
%TO.N,GND*%
X57500000Y-67000000D03*
%TD*%
%TO.P,D2,1,K*%
%TO.N,GND*%
X42690000Y-87050000D03*
%TO.P,D2,2,A*%
%TO.N,Net-(D2-A)*%
X50310000Y-87050000D03*
%TD*%
D15*
%TO.P,J1,1,Pin_1*%
%TO.N,GND*%
X72000000Y-68960000D03*
D16*
%TO.P,J1,2,Pin_2*%
%TO.N,unconnected-(J1-Pin_2-Pad2)*%
X72000000Y-71500000D03*
%TO.P,J1,3,Pin_3*%
%TO.N,/+5v*%
X72000000Y-74040000D03*
%TO.P,J1,4,Pin_4*%
%TO.N,Net-(J1-Pin_4)*%
X72000000Y-76580000D03*
%TO.P,J1,5,Pin_5*%
%TO.N,Net-(J1-Pin_5)*%
X72000000Y-79120000D03*
%TO.P,J1,6,Pin_6*%
%TO.N,Net-(J1-Pin_6)*%
X72000000Y-81660000D03*
%TD*%
D17*
%TO.P,SW1,1,1*%
%TO.N,/+5v*%
X43140000Y-111350000D03*
X49640000Y-111350000D03*
%TO.P,SW1,2,2*%
%TO.N,GND*%
X43140000Y-115850000D03*
X49640000Y-115850000D03*
%TD*%
D13*
%TO.P,D1,1,K*%
%TO.N,GND*%
X102000000Y-86500000D03*
%TO.P,D1,2,A*%
%TO.N,Net-(D1-A)*%
X109620000Y-86500000D03*
%TD*%
%TO.P,C9,1*%
%TO.N,/+5v*%
X57500000Y-29000000D03*
%TO.P,C9,2*%
%TO.N,GND*%
X60000000Y-29000000D03*
%TD*%
%TO.P,C1,1*%
%TO.N,Net-(U1-XTAL1{slash}PB6)*%
X59000000Y-33500000D03*
%TO.P,C1,2*%
%TO.N,GND*%
X61500000Y-33500000D03*
%TD*%
%TO.P,C7,1*%
%TO.N,GND*%
X53910000Y-103250000D03*
%TO.P,C7,2*%
%TO.N,/+5v*%
X56410000Y-103250000D03*
%TD*%
%TO.P,R1,1*%
%TO.N,Net-(U1-PC4)*%
X42690000Y-91100000D03*
%TO.P,R1,2*%
%TO.N,/+5v*%
X50310000Y-91100000D03*
%TD*%
%TO.P,C6,1*%
%TO.N,GND*%
X43000000Y-34500000D03*
%TO.P,C6,2*%
%TO.N,/+5v*%
X45500000Y-34500000D03*
%TD*%
D18*
%TO.P,U1,1,~{RESET}/PC6*%
%TO.N,/+5v*%
X89880000Y-71180000D03*
D13*
%TO.P,U1,2,PD0*%
%TO.N,Net-(J1-Pin_4)*%
X89880000Y-73720000D03*
%TO.P,U1,3,PD1*%
%TO.N,Net-(J1-Pin_5)*%
X89880000Y-76260000D03*
%TO.P,U1,4,PD2*%
%TO.N,unconnected-(U1-PD2-Pad4)*%
X89880000Y-78800000D03*
%TO.P,U1,5,PD3*%
%TO.N,unconnected-(U1-PD3-Pad5)*%
X89880000Y-81340000D03*
%TO.P,U1,6,PD4*%
%TO.N,unconnected-(U1-PD4-Pad6)*%
X89880000Y-83880000D03*
%TO.P,U1,7,VCC*%
%TO.N,/+5v*%
X89880000Y-86420000D03*
%TO.P,U1,8,GND*%
%TO.N,GND*%
X89880000Y-88960000D03*
%TO.P,U1,9,XTAL1/PB6*%
%TO.N,Net-(U1-XTAL1{slash}PB6)*%
X89880000Y-91500000D03*
%TO.P,U1,10,XTAL2/PB7*%
%TO.N,Net-(U1-XTAL2{slash}PB7)*%
X89880000Y-94040000D03*
%TO.P,U1,11,PD5*%
%TO.N,unconnected-(U1-PD5-Pad11)*%
X89880000Y-96580000D03*
%TO.P,U1,12,PD6*%
%TO.N,unconnected-(U1-PD6-Pad12)*%
X89880000Y-99120000D03*
%TO.P,U1,13,PD7*%
%TO.N,unconnected-(U1-PD7-Pad13)*%
X89880000Y-101660000D03*
%TO.P,U1,14,PB0*%
%TO.N,unconnected-(U1-PB0-Pad14)*%
X89880000Y-104200000D03*
%TO.P,U1,15,PB1*%
%TO.N,unconnected-(U1-PB1-Pad15)*%
X97500000Y-104200000D03*
%TO.P,U1,16,PB2*%
%TO.N,unconnected-(U1-PB2-Pad16)*%
X97500000Y-101660000D03*
%TO.P,U1,17,PB3*%
%TO.N,unconnected-(U1-PB3-Pad17)*%
X97500000Y-99120000D03*
%TO.P,U1,18,PB4*%
%TO.N,unconnected-(U1-PB4-Pad18)*%
X97500000Y-96580000D03*
%TO.P,U1,19,PB5*%
%TO.N,Net-(U1-PB5)*%
X97500000Y-94040000D03*
%TO.P,U1,20,AVCC*%
%TO.N,/+5v*%
X97500000Y-91500000D03*
%TO.P,U1,21,AREF*%
X97500000Y-88960000D03*
%TO.P,U1,22,GND*%
%TO.N,GND*%
X97500000Y-86420000D03*
%TO.P,U1,23,PC0*%
%TO.N,unconnected-(U1-PC0-Pad23)*%
X97500000Y-83880000D03*
%TO.P,U1,24,PC1*%
%TO.N,unconnected-(U1-PC1-Pad24)*%
X97500000Y-81340000D03*
%TO.P,U1,25,PC2*%
%TO.N,unconnected-(U1-PC2-Pad25)*%
X97500000Y-78800000D03*
%TO.P,U1,26,PC3*%
%TO.N,unconnected-(U1-PC3-Pad26)*%
X97500000Y-76260000D03*
%TO.P,U1,27,PC4*%
%TO.N,Net-(U1-PC4)*%
X97500000Y-73720000D03*
%TO.P,U1,28,PC5*%
%TO.N,Net-(U1-PC5)*%
X97500000Y-71180000D03*
%TD*%
%TO.P,R5,1*%
%TO.N,/+5v*%
X42690000Y-107300000D03*
%TO.P,R5,2*%
%TO.N,Net-(D2-A)*%
X50310000Y-107300000D03*
%TD*%
%TO.P,R3,1*%
%TO.N,Net-(U1-PB5)*%
X103500000Y-94310000D03*
%TO.P,R3,2*%
%TO.N,Net-(D1-A)*%
X111120000Y-94310000D03*
%TD*%
%TO.P,R2,1*%
%TO.N,/+5v*%
X42690000Y-95150000D03*
%TO.P,R2,2*%
%TO.N,GND*%
X50310000Y-95150000D03*
%TD*%
D19*
%TO.N,*%
X98000000Y-46500000D03*
%TO.N,Net-(U1-XTAL1{slash}PB6)*%
X63067900Y-88996800D03*
%TO.N,Net-(U2-VI)*%
X46139400Y-26360300D03*
%TO.N,/+5v*%
X56111500Y-73795600D03*
%TO.N,Net-(J1-Pin_5)*%
X51563200Y-77442800D03*
%TO.N,Net-(U1-PC5)*%
X51118800Y-73993700D03*
%TD*%
D20*
%TO.N,GND*%
X56410000Y-100750000D02*
X56410000Y-91100000D01*
X42250000Y-46730000D02*
X42690000Y-47170000D01*
X61500000Y-33500000D02*
X60000000Y-32000000D01*
X43000000Y-36500000D02*
X43000000Y-34500000D01*
X60000000Y-32000000D02*
X60000000Y-29000000D01*
X49640000Y-115850000D02*
X53910000Y-111580000D01*
X39000000Y-40500000D02*
X42250000Y-43750000D01*
X34000000Y-35500000D02*
X39000000Y-40500000D01*
X57500000Y-90010000D02*
X56410000Y-91100000D01*
X42250000Y-43750000D02*
X42250000Y-46730000D01*
X53910000Y-103250000D02*
X56410000Y-100750000D01*
X39000000Y-40500000D02*
X43000000Y-36500000D01*
X34000000Y-26500000D02*
X34000000Y-35500000D01*
X53910000Y-111580000D02*
X53910000Y-103250000D01*
X57500000Y-67000000D02*
X57500000Y-90010000D01*
X42690000Y-47170000D02*
X42690000Y-87050000D01*
%TO.N,Net-(U1-XTAL1{slash}PB6)*%
X59000000Y-33500000D02*
X58875000Y-33375000D01*
X63067900Y-88996800D02*
X59000000Y-84928900D01*
X58875000Y-33375000D02*
X58875000Y-25190000D01*
X59000000Y-84928900D02*
X59000000Y-33500000D01*
X58875000Y-25190000D02*
X60880000Y-23185000D01*
%TO.N,Net-(U1-XTAL2{slash}PB7)*%
X65760000Y-23185000D02*
X81660800Y-39085800D01*
X81660800Y-39085800D02*
X81660800Y-91910800D01*
X81660800Y-91910800D02*
X83000000Y-93250000D01*
%TO.N,Net-(U2-VI)*%
X39000000Y-38000000D02*
X40000000Y-37000000D01*
X40000000Y-37000000D02*
X40000000Y-26500000D01*
X46199700Y-26300000D02*
X46139400Y-26360300D01*
X47850000Y-26300000D02*
X46199700Y-26300000D01*
%TO.N,/+5v*%
X47648900Y-24000000D02*
X45500000Y-26148900D01*
X54150000Y-25650000D02*
X57500000Y-29000000D01*
X57500000Y-64500000D02*
X57500000Y-29000000D01*
X50310000Y-91100000D02*
X49145800Y-89935800D01*
X56111500Y-73795600D02*
X56111500Y-65888500D01*
X49145800Y-89935800D02*
X49145800Y-80761300D01*
X56111500Y-65888500D02*
X57500000Y-64500000D01*
X97500000Y-88960000D02*
X97500000Y-91500000D01*
X49145800Y-80761300D02*
X56111500Y-73795600D01*
X45500000Y-26148900D02*
X45500000Y-34500000D01*
X91049800Y-85250200D02*
X89880000Y-86420000D01*
X42690000Y-110900000D02*
X43140000Y-111350000D01*
X47850000Y-24000000D02*
X47648900Y-24000000D01*
X42690000Y-107300000D02*
X42690000Y-110900000D01*
X54150000Y-24000000D02*
X54150000Y-25650000D01*
X91049800Y-72349800D02*
X91049800Y-85250200D01*
X42690000Y-103250000D02*
X42690000Y-107300000D01*
X42690000Y-95150000D02*
X42690000Y-103250000D01*
X89880000Y-71180000D02*
X91049800Y-72349800D01*
%TO.N,Net-(J1-Pin_5)*%
X51742500Y-53722500D02*
X51742500Y-77263500D01*
X51742500Y-77263500D02*
X51563200Y-77442800D01*
X44750000Y-46730000D02*
X51742500Y-53722500D01*
%TO.N,Net-(D1-A)*%
X111120000Y-88000000D02*
X111120000Y-94310000D01*
X109620000Y-86500000D02*
X111120000Y-88000000D01*
%TO.N,Net-(D2-A)*%
X51435000Y-88175000D02*
X51435000Y-106175000D01*
X50310000Y-87050000D02*
X51435000Y-88175000D01*
X51435000Y-106175000D02*
X50310000Y-107300000D01*
%TO.N,Net-(U1-PC5)*%
X51118800Y-73993700D02*
X48744100Y-76368400D01*
X48744100Y-76368400D02*
X48744100Y-101684100D01*
X48744100Y-101684100D02*
X50310000Y-103250000D01*
%TD*%
D21*
%TO.C,J2*%
X40000000Y-26500000D03*
D22*
X34000000Y-26500000D03*
D23*
X37000000Y-31200000D03*
%TD*%
D24*
%TO.C,C3*%
X53910000Y-91100000D03*
X56410000Y-91100000D03*
%TD*%
%TO.C,C8*%
X42250000Y-46730000D03*
X44750000Y-46730000D03*
%TD*%
%TO.C,C5*%
X39000000Y-40500000D03*
X39000000Y-38000000D03*
%TD*%
%TO.C,C2*%
X83000000Y-93250000D03*
X83000000Y-90750000D03*
%TD*%
D25*
%TO.C,Y1*%
X60880000Y-23185000D03*
X65760000Y-23185000D03*
%TD*%
D32*
%TO.C,U2*%
X47850000Y-21700000D03*
X47850000Y-24000000D03*
D33*
X54150000Y-24000000D03*
D32*
X47850000Y-26300000D03*
%TD*%
D24*
%TO.C,R4*%
X42690000Y-103250000D03*
X50310000Y-103250000D03*
%TD*%
%TO.C,C10*%
X79000000Y-28000000D03*
X81500000Y-28000000D03*
%TD*%
%TO.C,C11*%
X57500000Y-64500000D03*
X57500000Y-67000000D03*
%TD*%
%TO.C,D2*%
X42690000Y-87050000D03*
X50310000Y-87050000D03*
%TD*%
D26*
%TO.C,J1*%
X72000000Y-68960000D03*
D27*
X72000000Y-71500000D03*
X72000000Y-74040000D03*
X72000000Y-76580000D03*
X72000000Y-79120000D03*
X72000000Y-81660000D03*
%TD*%
D28*
%TO.C,SW1*%
X43140000Y-111350000D03*
X49640000Y-111350000D03*
X43140000Y-115850000D03*
X49640000Y-115850000D03*
%TD*%
D24*
%TO.C,D1*%
X102000000Y-86500000D03*
X109620000Y-86500000D03*
%TD*%
%TO.C,C9*%
X57500000Y-29000000D03*
X60000000Y-29000000D03*
%TD*%
%TO.C,C1*%
X59000000Y-33500000D03*
X61500000Y-33500000D03*
%TD*%
%TO.C,C7*%
X53910000Y-103250000D03*
X56410000Y-103250000D03*
%TD*%
%TO.C,R1*%
X42690000Y-91100000D03*
X50310000Y-91100000D03*
%TD*%
%TO.C,C6*%
X43000000Y-34500000D03*
X45500000Y-34500000D03*
%TD*%
D29*
%TO.C,U1*%
X89880000Y-71180000D03*
D24*
X89880000Y-73720000D03*
X89880000Y-76260000D03*
X89880000Y-78800000D03*
X89880000Y-81340000D03*
X89880000Y-83880000D03*
X89880000Y-86420000D03*
X89880000Y-88960000D03*
X89880000Y-91500000D03*
X89880000Y-94040000D03*
X89880000Y-96580000D03*
X89880000Y-99120000D03*
X89880000Y-101660000D03*
X89880000Y-104200000D03*
X97500000Y-104200000D03*
X97500000Y-101660000D03*
X97500000Y-99120000D03*
X97500000Y-96580000D03*
X97500000Y-94040000D03*
X97500000Y-91500000D03*
X97500000Y-88960000D03*
X97500000Y-86420000D03*
X97500000Y-83880000D03*
X97500000Y-81340000D03*
X97500000Y-78800000D03*
X97500000Y-76260000D03*
X97500000Y-73720000D03*
X97500000Y-71180000D03*
%TD*%
%TO.C,R5*%
X42690000Y-107300000D03*
X50310000Y-107300000D03*
%TD*%
%TO.C,R3*%
X103500000Y-94310000D03*
X111120000Y-94310000D03*
%TD*%
%TO.C,R2*%
X42690000Y-95150000D03*
X50310000Y-95150000D03*
%TD*%
D34*
X31216666Y-31704819D02*
X31216666Y-32419104D01*
X31216666Y-32419104D02*
X31169047Y-32561961D01*
X31169047Y-32561961D02*
X31073809Y-32657200D01*
X31073809Y-32657200D02*
X30930952Y-32704819D01*
X30930952Y-32704819D02*
X30835714Y-32704819D01*
X31645238Y-31800057D02*
X31692857Y-31752438D01*
X31692857Y-31752438D02*
X31788095Y-31704819D01*
X31788095Y-31704819D02*
X32026190Y-31704819D01*
X32026190Y-31704819D02*
X32121428Y-31752438D01*
X32121428Y-31752438D02*
X32169047Y-31800057D01*
X32169047Y-31800057D02*
X32216666Y-31895295D01*
X32216666Y-31895295D02*
X32216666Y-31990533D01*
X32216666Y-31990533D02*
X32169047Y-32133390D01*
X32169047Y-32133390D02*
X31597619Y-32704819D01*
X31597619Y-32704819D02*
X32216666Y-32704819D01*
X53833333Y-88859580D02*
X53785714Y-88907200D01*
X53785714Y-88907200D02*
X53642857Y-88954819D01*
X53642857Y-88954819D02*
X53547619Y-88954819D01*
X53547619Y-88954819D02*
X53404762Y-88907200D01*
X53404762Y-88907200D02*
X53309524Y-88811961D01*
X53309524Y-88811961D02*
X53261905Y-88716723D01*
X53261905Y-88716723D02*
X53214286Y-88526247D01*
X53214286Y-88526247D02*
X53214286Y-88383390D01*
X53214286Y-88383390D02*
X53261905Y-88192914D01*
X53261905Y-88192914D02*
X53309524Y-88097676D01*
X53309524Y-88097676D02*
X53404762Y-88002438D01*
X53404762Y-88002438D02*
X53547619Y-87954819D01*
X53547619Y-87954819D02*
X53642857Y-87954819D01*
X53642857Y-87954819D02*
X53785714Y-88002438D01*
X53785714Y-88002438D02*
X53833333Y-88050057D01*
X54166667Y-87954819D02*
X54785714Y-87954819D01*
X54785714Y-87954819D02*
X54452381Y-88335771D01*
X54452381Y-88335771D02*
X54595238Y-88335771D01*
X54595238Y-88335771D02*
X54690476Y-88383390D01*
X54690476Y-88383390D02*
X54738095Y-88431009D01*
X54738095Y-88431009D02*
X54785714Y-88526247D01*
X54785714Y-88526247D02*
X54785714Y-88764342D01*
X54785714Y-88764342D02*
X54738095Y-88859580D01*
X54738095Y-88859580D02*
X54690476Y-88907200D01*
X54690476Y-88907200D02*
X54595238Y-88954819D01*
X54595238Y-88954819D02*
X54309524Y-88954819D01*
X54309524Y-88954819D02*
X54214286Y-88907200D01*
X54214286Y-88907200D02*
X54166667Y-88859580D01*
X43333333Y-44589580D02*
X43285714Y-44637200D01*
X43285714Y-44637200D02*
X43142857Y-44684819D01*
X43142857Y-44684819D02*
X43047619Y-44684819D01*
X43047619Y-44684819D02*
X42904762Y-44637200D01*
X42904762Y-44637200D02*
X42809524Y-44541961D01*
X42809524Y-44541961D02*
X42761905Y-44446723D01*
X42761905Y-44446723D02*
X42714286Y-44256247D01*
X42714286Y-44256247D02*
X42714286Y-44113390D01*
X42714286Y-44113390D02*
X42761905Y-43922914D01*
X42761905Y-43922914D02*
X42809524Y-43827676D01*
X42809524Y-43827676D02*
X42904762Y-43732438D01*
X42904762Y-43732438D02*
X43047619Y-43684819D01*
X43047619Y-43684819D02*
X43142857Y-43684819D01*
X43142857Y-43684819D02*
X43285714Y-43732438D01*
X43285714Y-43732438D02*
X43333333Y-43780057D01*
X43904762Y-44113390D02*
X43809524Y-44065771D01*
X43809524Y-44065771D02*
X43761905Y-44018152D01*
X43761905Y-44018152D02*
X43714286Y-43922914D01*
X43714286Y-43922914D02*
X43714286Y-43875295D01*
X43714286Y-43875295D02*
X43761905Y-43780057D01*
X43761905Y-43780057D02*
X43809524Y-43732438D01*
X43809524Y-43732438D02*
X43904762Y-43684819D01*
X43904762Y-43684819D02*
X44095238Y-43684819D01*
X44095238Y-43684819D02*
X44190476Y-43732438D01*
X44190476Y-43732438D02*
X44238095Y-43780057D01*
X44238095Y-43780057D02*
X44285714Y-43875295D01*
X44285714Y-43875295D02*
X44285714Y-43922914D01*
X44285714Y-43922914D02*
X44238095Y-44018152D01*
X44238095Y-44018152D02*
X44190476Y-44065771D01*
X44190476Y-44065771D02*
X44095238Y-44113390D01*
X44095238Y-44113390D02*
X43904762Y-44113390D01*
X43904762Y-44113390D02*
X43809524Y-44161009D01*
X43809524Y-44161009D02*
X43761905Y-44208628D01*
X43761905Y-44208628D02*
X43714286Y-44303866D01*
X43714286Y-44303866D02*
X43714286Y-44494342D01*
X43714286Y-44494342D02*
X43761905Y-44589580D01*
X43761905Y-44589580D02*
X43809524Y-44637200D01*
X43809524Y-44637200D02*
X43904762Y-44684819D01*
X43904762Y-44684819D02*
X44095238Y-44684819D01*
X44095238Y-44684819D02*
X44190476Y-44637200D01*
X44190476Y-44637200D02*
X44238095Y-44589580D01*
X44238095Y-44589580D02*
X44285714Y-44494342D01*
X44285714Y-44494342D02*
X44285714Y-44303866D01*
X44285714Y-44303866D02*
X44238095Y-44208628D01*
X44238095Y-44208628D02*
X44190476Y-44161009D01*
X44190476Y-44161009D02*
X44095238Y-44113390D01*
X80859580Y-92166666D02*
X80907200Y-92214285D01*
X80907200Y-92214285D02*
X80954819Y-92357142D01*
X80954819Y-92357142D02*
X80954819Y-92452380D01*
X80954819Y-92452380D02*
X80907200Y-92595237D01*
X80907200Y-92595237D02*
X80811961Y-92690475D01*
X80811961Y-92690475D02*
X80716723Y-92738094D01*
X80716723Y-92738094D02*
X80526247Y-92785713D01*
X80526247Y-92785713D02*
X80383390Y-92785713D01*
X80383390Y-92785713D02*
X80192914Y-92738094D01*
X80192914Y-92738094D02*
X80097676Y-92690475D01*
X80097676Y-92690475D02*
X80002438Y-92595237D01*
X80002438Y-92595237D02*
X79954819Y-92452380D01*
X79954819Y-92452380D02*
X79954819Y-92357142D01*
X79954819Y-92357142D02*
X80002438Y-92214285D01*
X80002438Y-92214285D02*
X80050057Y-92166666D01*
X80050057Y-91785713D02*
X80002438Y-91738094D01*
X80002438Y-91738094D02*
X79954819Y-91642856D01*
X79954819Y-91642856D02*
X79954819Y-91404761D01*
X79954819Y-91404761D02*
X80002438Y-91309523D01*
X80002438Y-91309523D02*
X80050057Y-91261904D01*
X80050057Y-91261904D02*
X80145295Y-91214285D01*
X80145295Y-91214285D02*
X80240533Y-91214285D01*
X80240533Y-91214285D02*
X80383390Y-91261904D01*
X80383390Y-91261904D02*
X80954819Y-91833332D01*
X80954819Y-91833332D02*
X80954819Y-91214285D01*
X50238095Y-17954819D02*
X50238095Y-18764342D01*
X50238095Y-18764342D02*
X50285714Y-18859580D01*
X50285714Y-18859580D02*
X50333333Y-18907200D01*
X50333333Y-18907200D02*
X50428571Y-18954819D01*
X50428571Y-18954819D02*
X50619047Y-18954819D01*
X50619047Y-18954819D02*
X50714285Y-18907200D01*
X50714285Y-18907200D02*
X50761904Y-18859580D01*
X50761904Y-18859580D02*
X50809523Y-18764342D01*
X50809523Y-18764342D02*
X50809523Y-17954819D01*
X51238095Y-18050057D02*
X51285714Y-18002438D01*
X51285714Y-18002438D02*
X51380952Y-17954819D01*
X51380952Y-17954819D02*
X51619047Y-17954819D01*
X51619047Y-17954819D02*
X51714285Y-18002438D01*
X51714285Y-18002438D02*
X51761904Y-18050057D01*
X51761904Y-18050057D02*
X51809523Y-18145295D01*
X51809523Y-18145295D02*
X51809523Y-18240533D01*
X51809523Y-18240533D02*
X51761904Y-18383390D01*
X51761904Y-18383390D02*
X51190476Y-18954819D01*
X51190476Y-18954819D02*
X51809523Y-18954819D01*
X63857142Y-33859580D02*
X63809523Y-33907200D01*
X63809523Y-33907200D02*
X63666666Y-33954819D01*
X63666666Y-33954819D02*
X63571428Y-33954819D01*
X63571428Y-33954819D02*
X63428571Y-33907200D01*
X63428571Y-33907200D02*
X63333333Y-33811961D01*
X63333333Y-33811961D02*
X63285714Y-33716723D01*
X63285714Y-33716723D02*
X63238095Y-33526247D01*
X63238095Y-33526247D02*
X63238095Y-33383390D01*
X63238095Y-33383390D02*
X63285714Y-33192914D01*
X63285714Y-33192914D02*
X63333333Y-33097676D01*
X63333333Y-33097676D02*
X63428571Y-33002438D01*
X63428571Y-33002438D02*
X63571428Y-32954819D01*
X63571428Y-32954819D02*
X63666666Y-32954819D01*
X63666666Y-32954819D02*
X63809523Y-33002438D01*
X63809523Y-33002438D02*
X63857142Y-33050057D01*
X64809523Y-33954819D02*
X64238095Y-33954819D01*
X64523809Y-33954819D02*
X64523809Y-32954819D01*
X64523809Y-32954819D02*
X64428571Y-33097676D01*
X64428571Y-33097676D02*
X64333333Y-33192914D01*
X64333333Y-33192914D02*
X64238095Y-33240533D01*
X65428571Y-32954819D02*
X65523809Y-32954819D01*
X65523809Y-32954819D02*
X65619047Y-33002438D01*
X65619047Y-33002438D02*
X65666666Y-33050057D01*
X65666666Y-33050057D02*
X65714285Y-33145295D01*
X65714285Y-33145295D02*
X65761904Y-33335771D01*
X65761904Y-33335771D02*
X65761904Y-33573866D01*
X65761904Y-33573866D02*
X65714285Y-33764342D01*
X65714285Y-33764342D02*
X65666666Y-33859580D01*
X65666666Y-33859580D02*
X65619047Y-33907200D01*
X65619047Y-33907200D02*
X65523809Y-33954819D01*
X65523809Y-33954819D02*
X65428571Y-33954819D01*
X65428571Y-33954819D02*
X65333333Y-33907200D01*
X65333333Y-33907200D02*
X65285714Y-33859580D01*
X65285714Y-33859580D02*
X65238095Y-33764342D01*
X65238095Y-33764342D02*
X65190476Y-33573866D01*
X65190476Y-33573866D02*
X65190476Y-33335771D01*
X65190476Y-33335771D02*
X65238095Y-33145295D01*
X65238095Y-33145295D02*
X65285714Y-33050057D01*
X65285714Y-33050057D02*
X65333333Y-33002438D01*
X65333333Y-33002438D02*
X65428571Y-32954819D01*
X60859580Y-67142857D02*
X60907200Y-67190476D01*
X60907200Y-67190476D02*
X60954819Y-67333333D01*
X60954819Y-67333333D02*
X60954819Y-67428571D01*
X60954819Y-67428571D02*
X60907200Y-67571428D01*
X60907200Y-67571428D02*
X60811961Y-67666666D01*
X60811961Y-67666666D02*
X60716723Y-67714285D01*
X60716723Y-67714285D02*
X60526247Y-67761904D01*
X60526247Y-67761904D02*
X60383390Y-67761904D01*
X60383390Y-67761904D02*
X60192914Y-67714285D01*
X60192914Y-67714285D02*
X60097676Y-67666666D01*
X60097676Y-67666666D02*
X60002438Y-67571428D01*
X60002438Y-67571428D02*
X59954819Y-67428571D01*
X59954819Y-67428571D02*
X59954819Y-67333333D01*
X59954819Y-67333333D02*
X60002438Y-67190476D01*
X60002438Y-67190476D02*
X60050057Y-67142857D01*
X60954819Y-66190476D02*
X60954819Y-66761904D01*
X60954819Y-66476190D02*
X59954819Y-66476190D01*
X59954819Y-66476190D02*
X60097676Y-66571428D01*
X60097676Y-66571428D02*
X60192914Y-66666666D01*
X60192914Y-66666666D02*
X60240533Y-66761904D01*
X60954819Y-65238095D02*
X60954819Y-65809523D01*
X60954819Y-65523809D02*
X59954819Y-65523809D01*
X59954819Y-65523809D02*
X60097676Y-65619047D01*
X60097676Y-65619047D02*
X60192914Y-65714285D01*
X60192914Y-65714285D02*
X60240533Y-65809523D01*
X71666666Y-66034819D02*
X71666666Y-66749104D01*
X71666666Y-66749104D02*
X71619047Y-66891961D01*
X71619047Y-66891961D02*
X71523809Y-66987200D01*
X71523809Y-66987200D02*
X71380952Y-67034819D01*
X71380952Y-67034819D02*
X71285714Y-67034819D01*
X72666666Y-67034819D02*
X72095238Y-67034819D01*
X72380952Y-67034819D02*
X72380952Y-66034819D01*
X72380952Y-66034819D02*
X72285714Y-66177676D01*
X72285714Y-66177676D02*
X72190476Y-66272914D01*
X72190476Y-66272914D02*
X72095238Y-66320533D01*
X38166667Y-113407200D02*
X38309524Y-113454819D01*
X38309524Y-113454819D02*
X38547619Y-113454819D01*
X38547619Y-113454819D02*
X38642857Y-113407200D01*
X38642857Y-113407200D02*
X38690476Y-113359580D01*
X38690476Y-113359580D02*
X38738095Y-113264342D01*
X38738095Y-113264342D02*
X38738095Y-113169104D01*
X38738095Y-113169104D02*
X38690476Y-113073866D01*
X38690476Y-113073866D02*
X38642857Y-113026247D01*
X38642857Y-113026247D02*
X38547619Y-112978628D01*
X38547619Y-112978628D02*
X38357143Y-112931009D01*
X38357143Y-112931009D02*
X38261905Y-112883390D01*
X38261905Y-112883390D02*
X38214286Y-112835771D01*
X38214286Y-112835771D02*
X38166667Y-112740533D01*
X38166667Y-112740533D02*
X38166667Y-112645295D01*
X38166667Y-112645295D02*
X38214286Y-112550057D01*
X38214286Y-112550057D02*
X38261905Y-112502438D01*
X38261905Y-112502438D02*
X38357143Y-112454819D01*
X38357143Y-112454819D02*
X38595238Y-112454819D01*
X38595238Y-112454819D02*
X38738095Y-112502438D01*
X39071429Y-112454819D02*
X39309524Y-113454819D01*
X39309524Y-113454819D02*
X39500000Y-112740533D01*
X39500000Y-112740533D02*
X39690476Y-113454819D01*
X39690476Y-113454819D02*
X39928572Y-112454819D01*
X40833333Y-113454819D02*
X40261905Y-113454819D01*
X40547619Y-113454819D02*
X40547619Y-112454819D01*
X40547619Y-112454819D02*
X40452381Y-112597676D01*
X40452381Y-112597676D02*
X40357143Y-112692914D01*
X40357143Y-112692914D02*
X40261905Y-112740533D01*
X105071905Y-84584819D02*
X105071905Y-83584819D01*
X105071905Y-83584819D02*
X105310000Y-83584819D01*
X105310000Y-83584819D02*
X105452857Y-83632438D01*
X105452857Y-83632438D02*
X105548095Y-83727676D01*
X105548095Y-83727676D02*
X105595714Y-83822914D01*
X105595714Y-83822914D02*
X105643333Y-84013390D01*
X105643333Y-84013390D02*
X105643333Y-84156247D01*
X105643333Y-84156247D02*
X105595714Y-84346723D01*
X105595714Y-84346723D02*
X105548095Y-84441961D01*
X105548095Y-84441961D02*
X105452857Y-84537200D01*
X105452857Y-84537200D02*
X105310000Y-84584819D01*
X105310000Y-84584819D02*
X105071905Y-84584819D01*
X106595714Y-84584819D02*
X106024286Y-84584819D01*
X106310000Y-84584819D02*
X106310000Y-83584819D01*
X106310000Y-83584819D02*
X106214762Y-83727676D01*
X106214762Y-83727676D02*
X106119524Y-83822914D01*
X106119524Y-83822914D02*
X106024286Y-83870533D01*
X57333333Y-26859580D02*
X57285714Y-26907200D01*
X57285714Y-26907200D02*
X57142857Y-26954819D01*
X57142857Y-26954819D02*
X57047619Y-26954819D01*
X57047619Y-26954819D02*
X56904762Y-26907200D01*
X56904762Y-26907200D02*
X56809524Y-26811961D01*
X56809524Y-26811961D02*
X56761905Y-26716723D01*
X56761905Y-26716723D02*
X56714286Y-26526247D01*
X56714286Y-26526247D02*
X56714286Y-26383390D01*
X56714286Y-26383390D02*
X56761905Y-26192914D01*
X56761905Y-26192914D02*
X56809524Y-26097676D01*
X56809524Y-26097676D02*
X56904762Y-26002438D01*
X56904762Y-26002438D02*
X57047619Y-25954819D01*
X57047619Y-25954819D02*
X57142857Y-25954819D01*
X57142857Y-25954819D02*
X57285714Y-26002438D01*
X57285714Y-26002438D02*
X57333333Y-26050057D01*
X57809524Y-26954819D02*
X58000000Y-26954819D01*
X58000000Y-26954819D02*
X58095238Y-26907200D01*
X58095238Y-26907200D02*
X58142857Y-26859580D01*
X58142857Y-26859580D02*
X58238095Y-26716723D01*
X58238095Y-26716723D02*
X58285714Y-26526247D01*
X58285714Y-26526247D02*
X58285714Y-26145295D01*
X58285714Y-26145295D02*
X58238095Y-26050057D01*
X58238095Y-26050057D02*
X58190476Y-26002438D01*
X58190476Y-26002438D02*
X58095238Y-25954819D01*
X58095238Y-25954819D02*
X57904762Y-25954819D01*
X57904762Y-25954819D02*
X57809524Y-26002438D01*
X57809524Y-26002438D02*
X57761905Y-26050057D01*
X57761905Y-26050057D02*
X57714286Y-26145295D01*
X57714286Y-26145295D02*
X57714286Y-26383390D01*
X57714286Y-26383390D02*
X57761905Y-26478628D01*
X57761905Y-26478628D02*
X57809524Y-26526247D01*
X57809524Y-26526247D02*
X57904762Y-26573866D01*
X57904762Y-26573866D02*
X58095238Y-26573866D01*
X58095238Y-26573866D02*
X58190476Y-26526247D01*
X58190476Y-26526247D02*
X58238095Y-26478628D01*
X58238095Y-26478628D02*
X58285714Y-26383390D01*
X62333333Y-30359580D02*
X62285714Y-30407200D01*
X62285714Y-30407200D02*
X62142857Y-30454819D01*
X62142857Y-30454819D02*
X62047619Y-30454819D01*
X62047619Y-30454819D02*
X61904762Y-30407200D01*
X61904762Y-30407200D02*
X61809524Y-30311961D01*
X61809524Y-30311961D02*
X61761905Y-30216723D01*
X61761905Y-30216723D02*
X61714286Y-30026247D01*
X61714286Y-30026247D02*
X61714286Y-29883390D01*
X61714286Y-29883390D02*
X61761905Y-29692914D01*
X61761905Y-29692914D02*
X61809524Y-29597676D01*
X61809524Y-29597676D02*
X61904762Y-29502438D01*
X61904762Y-29502438D02*
X62047619Y-29454819D01*
X62047619Y-29454819D02*
X62142857Y-29454819D01*
X62142857Y-29454819D02*
X62285714Y-29502438D01*
X62285714Y-29502438D02*
X62333333Y-29550057D01*
X63285714Y-30454819D02*
X62714286Y-30454819D01*
X63000000Y-30454819D02*
X63000000Y-29454819D01*
X63000000Y-29454819D02*
X62904762Y-29597676D01*
X62904762Y-29597676D02*
X62809524Y-29692914D01*
X62809524Y-29692914D02*
X62714286Y-29740533D01*
X39833333Y-91954819D02*
X39500000Y-91478628D01*
X39261905Y-91954819D02*
X39261905Y-90954819D01*
X39261905Y-90954819D02*
X39642857Y-90954819D01*
X39642857Y-90954819D02*
X39738095Y-91002438D01*
X39738095Y-91002438D02*
X39785714Y-91050057D01*
X39785714Y-91050057D02*
X39833333Y-91145295D01*
X39833333Y-91145295D02*
X39833333Y-91288152D01*
X39833333Y-91288152D02*
X39785714Y-91383390D01*
X39785714Y-91383390D02*
X39738095Y-91431009D01*
X39738095Y-91431009D02*
X39642857Y-91478628D01*
X39642857Y-91478628D02*
X39261905Y-91478628D01*
X40785714Y-91954819D02*
X40214286Y-91954819D01*
X40500000Y-91954819D02*
X40500000Y-90954819D01*
X40500000Y-90954819D02*
X40404762Y-91097676D01*
X40404762Y-91097676D02*
X40309524Y-91192914D01*
X40309524Y-91192914D02*
X40214286Y-91240533D01*
X92928095Y-66954819D02*
X92928095Y-67764342D01*
X92928095Y-67764342D02*
X92975714Y-67859580D01*
X92975714Y-67859580D02*
X93023333Y-67907200D01*
X93023333Y-67907200D02*
X93118571Y-67954819D01*
X93118571Y-67954819D02*
X93309047Y-67954819D01*
X93309047Y-67954819D02*
X93404285Y-67907200D01*
X93404285Y-67907200D02*
X93451904Y-67859580D01*
X93451904Y-67859580D02*
X93499523Y-67764342D01*
X93499523Y-67764342D02*
X93499523Y-66954819D01*
X94499523Y-67954819D02*
X93928095Y-67954819D01*
X94213809Y-67954819D02*
X94213809Y-66954819D01*
X94213809Y-66954819D02*
X94118571Y-67097676D01*
X94118571Y-67097676D02*
X94023333Y-67192914D01*
X94023333Y-67192914D02*
X93928095Y-67240533D01*
X107143333Y-92394819D02*
X106810000Y-91918628D01*
X106571905Y-92394819D02*
X106571905Y-91394819D01*
X106571905Y-91394819D02*
X106952857Y-91394819D01*
X106952857Y-91394819D02*
X107048095Y-91442438D01*
X107048095Y-91442438D02*
X107095714Y-91490057D01*
X107095714Y-91490057D02*
X107143333Y-91585295D01*
X107143333Y-91585295D02*
X107143333Y-91728152D01*
X107143333Y-91728152D02*
X107095714Y-91823390D01*
X107095714Y-91823390D02*
X107048095Y-91871009D01*
X107048095Y-91871009D02*
X106952857Y-91918628D01*
X106952857Y-91918628D02*
X106571905Y-91918628D01*
X107476667Y-91394819D02*
X108095714Y-91394819D01*
X108095714Y-91394819D02*
X107762381Y-91775771D01*
X107762381Y-91775771D02*
X107905238Y-91775771D01*
X107905238Y-91775771D02*
X108000476Y-91823390D01*
X108000476Y-91823390D02*
X108048095Y-91871009D01*
X108048095Y-91871009D02*
X108095714Y-91966247D01*
X108095714Y-91966247D02*
X108095714Y-92204342D01*
X108095714Y-92204342D02*
X108048095Y-92299580D01*
X108048095Y-92299580D02*
X108000476Y-92347200D01*
X108000476Y-92347200D02*
X107905238Y-92394819D01*
X107905238Y-92394819D02*
X107619524Y-92394819D01*
X107619524Y-92394819D02*
X107524286Y-92347200D01*
X107524286Y-92347200D02*
X107476667Y-92299580D01*
X39833333Y-95454819D02*
X39500000Y-94978628D01*
X39261905Y-95454819D02*
X39261905Y-94454819D01*
X39261905Y-94454819D02*
X39642857Y-94454819D01*
X39642857Y-94454819D02*
X39738095Y-94502438D01*
X39738095Y-94502438D02*
X39785714Y-94550057D01*
X39785714Y-94550057D02*
X39833333Y-94645295D01*
X39833333Y-94645295D02*
X39833333Y-94788152D01*
X39833333Y-94788152D02*
X39785714Y-94883390D01*
X39785714Y-94883390D02*
X39738095Y-94931009D01*
X39738095Y-94931009D02*
X39642857Y-94978628D01*
X39642857Y-94978628D02*
X39261905Y-94978628D01*
X40214286Y-94550057D02*
X40261905Y-94502438D01*
X40261905Y-94502438D02*
X40357143Y-94454819D01*
X40357143Y-94454819D02*
X40595238Y-94454819D01*
X40595238Y-94454819D02*
X40690476Y-94502438D01*
X40690476Y-94502438D02*
X40738095Y-94550057D01*
X40738095Y-94550057D02*
X40785714Y-94645295D01*
X40785714Y-94645295D02*
X40785714Y-94740533D01*
X40785714Y-94740533D02*
X40738095Y-94883390D01*
X40738095Y-94883390D02*
X40166667Y-95454819D01*
X40166667Y-95454819D02*
X40785714Y-95454819D01*
D35*
%TO.C,J2*%
X26200000Y-21900000D02*
X40900000Y-21900000D01*
X26200000Y-31100000D02*
X26200000Y-21900000D01*
X35000000Y-31100000D02*
X26200000Y-31100000D01*
X40050000Y-21700000D02*
X41100000Y-21700000D01*
X40900000Y-21900000D02*
X40900000Y-24500000D01*
X40900000Y-28400000D02*
X40900000Y-31100000D01*
X40900000Y-31100000D02*
X39000000Y-31100000D01*
X41100000Y-22750000D02*
X41100000Y-21700000D01*
%TO.C,C3*%
X52540000Y-89730000D02*
X52540000Y-92470000D01*
X52540000Y-89730000D02*
X57780000Y-89730000D01*
X52540000Y-92470000D02*
X57780000Y-92470000D01*
X57780000Y-89730000D02*
X57780000Y-92470000D01*
%TO.C,C8*%
X40880000Y-45360000D02*
X40880000Y-48100000D01*
X40880000Y-45360000D02*
X46120000Y-45360000D01*
X40880000Y-48100000D02*
X46120000Y-48100000D01*
X46120000Y-45360000D02*
X46120000Y-48100000D01*
%TO.C,C5*%
X37630000Y-36630000D02*
X40370000Y-36630000D01*
X37630000Y-41870000D02*
X37630000Y-36630000D01*
X37630000Y-41870000D02*
X40370000Y-41870000D01*
X40370000Y-41870000D02*
X40370000Y-36630000D01*
%TO.C,C2*%
X81630000Y-89380000D02*
X84370000Y-89380000D01*
X81630000Y-94620000D02*
X81630000Y-89380000D01*
X81630000Y-94620000D02*
X84370000Y-94620000D01*
X84370000Y-94620000D02*
X84370000Y-89380000D01*
%TO.C,Y1*%
X60195000Y-20750000D02*
X66445000Y-20750000D01*
X60195000Y-25620000D02*
X66445000Y-25620000D01*
X60195000Y-25620000D02*
G75*
G02*
X60195000Y-20750000I0J2435000D01*
G01*
X66445000Y-20750000D02*
G75*
G02*
X66445000Y-25620000I0J-2435000D01*
G01*
%TO.C,U2*%
X49150000Y-20590000D02*
X52910000Y-20590000D01*
X49150000Y-27410000D02*
X52910000Y-27410000D01*
X52910000Y-20590000D02*
X52910000Y-21850000D01*
X52910000Y-27410000D02*
X52910000Y-26150000D01*
X47870000Y-20690000D02*
X47630000Y-20360000D01*
X48110000Y-20360000D01*
X47870000Y-20690000D01*
G36*
X47870000Y-20690000D02*
G01*
X47630000Y-20360000D01*
X48110000Y-20360000D01*
X47870000Y-20690000D01*
G37*
%TO.C,R4*%
X43230000Y-101880000D02*
X49770000Y-101880000D01*
X43230000Y-102210000D02*
X43230000Y-101880000D01*
X43230000Y-104290000D02*
X43230000Y-104620000D01*
X43230000Y-104620000D02*
X49770000Y-104620000D01*
X49770000Y-101880000D02*
X49770000Y-102210000D01*
X49770000Y-104620000D02*
X49770000Y-104290000D01*
%TO.C,C10*%
X77630000Y-26630000D02*
X77630000Y-29370000D01*
X77630000Y-26630000D02*
X82870000Y-26630000D01*
X77630000Y-29370000D02*
X82870000Y-29370000D01*
X82870000Y-26630000D02*
X82870000Y-29370000D01*
%TO.C,C11*%
X56130000Y-63130000D02*
X56130000Y-68370000D01*
X58870000Y-63130000D02*
X56130000Y-63130000D01*
X58870000Y-63130000D02*
X58870000Y-68370000D01*
X58870000Y-68370000D02*
X56130000Y-68370000D01*
%TO.C,D2*%
X43230000Y-85680000D02*
X49770000Y-85680000D01*
X43230000Y-86010000D02*
X43230000Y-85680000D01*
X43230000Y-88090000D02*
X43230000Y-88420000D01*
X43230000Y-88420000D02*
X49770000Y-88420000D01*
X49770000Y-85680000D02*
X49770000Y-86010000D01*
X49770000Y-88420000D02*
X49770000Y-88090000D01*
%TO.C,J1*%
X70620000Y-67580000D02*
X72000000Y-67580000D01*
X70620000Y-68960000D02*
X70620000Y-67580000D01*
X70620000Y-70230000D02*
X70620000Y-83040000D01*
X70620000Y-70230000D02*
X73380000Y-70230000D01*
X70620000Y-83040000D02*
X73380000Y-83040000D01*
X73380000Y-70230000D02*
X73380000Y-83040000D01*
%TO.C,SW1*%
X42890000Y-112850000D02*
X42890000Y-114350000D01*
X44140000Y-116850000D02*
X48640000Y-116850000D01*
X48640000Y-110350000D02*
X44140000Y-110350000D01*
X49890000Y-114350000D02*
X49890000Y-112850000D01*
%TO.C,D1*%
X102540000Y-85130000D02*
X109080000Y-85130000D01*
X102540000Y-85460000D02*
X102540000Y-85130000D01*
X102540000Y-87540000D02*
X102540000Y-87870000D01*
X102540000Y-87870000D02*
X109080000Y-87870000D01*
X109080000Y-85130000D02*
X109080000Y-85460000D01*
X109080000Y-87870000D02*
X109080000Y-87540000D01*
%TO.C,C9*%
X56130000Y-27630000D02*
X56130000Y-30370000D01*
X56130000Y-27630000D02*
X61370000Y-27630000D01*
X56130000Y-30370000D02*
X61370000Y-30370000D01*
X61370000Y-27630000D02*
X61370000Y-30370000D01*
%TO.C,C1*%
X57630000Y-32130000D02*
X57630000Y-34870000D01*
X57630000Y-32130000D02*
X62870000Y-32130000D01*
X57630000Y-34870000D02*
X62870000Y-34870000D01*
X62870000Y-32130000D02*
X62870000Y-34870000D01*
%TO.C,C7*%
X52540000Y-101880000D02*
X52540000Y-104620000D01*
X52540000Y-101880000D02*
X57780000Y-101880000D01*
X52540000Y-104620000D02*
X57780000Y-104620000D01*
X57780000Y-101880000D02*
X57780000Y-104620000D01*
%TO.C,R1*%
X43230000Y-89730000D02*
X49770000Y-89730000D01*
X43230000Y-90060000D02*
X43230000Y-89730000D01*
X43230000Y-92140000D02*
X43230000Y-92470000D01*
X43230000Y-92470000D02*
X49770000Y-92470000D01*
X49770000Y-89730000D02*
X49770000Y-90060000D01*
X49770000Y-92470000D02*
X49770000Y-92140000D01*
%TO.C,C6*%
X41630000Y-33130000D02*
X41630000Y-35870000D01*
X41630000Y-33130000D02*
X46870000Y-33130000D01*
X41630000Y-35870000D02*
X46870000Y-35870000D01*
X46870000Y-33130000D02*
X46870000Y-35870000D01*
%TO.C,U1*%
X91040000Y-69850000D02*
X91040000Y-105530000D01*
X91040000Y-105530000D02*
X96340000Y-105530000D01*
X92690000Y-69850000D02*
X91040000Y-69850000D01*
X96340000Y-69850000D02*
X94690000Y-69850000D01*
X96340000Y-105530000D02*
X96340000Y-69850000D01*
X94690000Y-69850000D02*
G75*
G02*
X92690000Y-69850000I-1000000J0D01*
G01*
%TO.C,R5*%
X43230000Y-105930000D02*
X49770000Y-105930000D01*
X43230000Y-106260000D02*
X43230000Y-105930000D01*
X43230000Y-108340000D02*
X43230000Y-108670000D01*
X43230000Y-108670000D02*
X49770000Y-108670000D01*
X49770000Y-105930000D02*
X49770000Y-106260000D01*
X49770000Y-108670000D02*
X49770000Y-108340000D01*
%TO.C,R3*%
X104040000Y-92940000D02*
X110580000Y-92940000D01*
X104040000Y-93270000D02*
X104040000Y-92940000D01*
X104040000Y-95350000D02*
X104040000Y-95680000D01*
X104040000Y-95680000D02*
X110580000Y-95680000D01*
X110580000Y-92940000D02*
X110580000Y-93270000D01*
X110580000Y-95680000D02*
X110580000Y-95350000D01*
%TO.C,R2*%
X43230000Y-93780000D02*
X49770000Y-93780000D01*
X43230000Y-94110000D02*
X43230000Y-93780000D01*
X43230000Y-96190000D02*
X43230000Y-96520000D01*
X43230000Y-96520000D02*
X49770000Y-96520000D01*
X49770000Y-93780000D02*
X49770000Y-94110000D01*
X49770000Y-96520000D02*
X49770000Y-96190000D01*
%TD*%
D36*
X118500000Y-17000000D02*
X118500000Y-123500000D01*
X20500000Y-17000000D02*
X118500000Y-17000000D01*
X20500000Y-123500000D02*
X20500000Y-17000000D01*
X118500000Y-123500000D02*
X20500000Y-123500000D01*
M02*
