M48
; DRILL file {KiCad 9.0.2} date 2025-06-30T09:25:27+0530
; FORMAT={3:3/ absolute / metric / suppress leading zeros}
; #@! TF.CreationDate,2025-06-30T09:25:27+05:30
; #@! TF.GenerationSoftware,Kicad,Pcbnew,9.0.2
; #@! TF.FileFunction,Plated,1,2,PTH
FMAT,2
METRIC,TZ
; #@! TA.AperFunction,Plated,PTH,ViaDrill
T1C0.300
; #@! TA.AperFunction,Plated,PTH,ComponentDrill
T2C0.800
; #@! TA.AperFunction,Plated,PTH,ComponentDrill
T3C1.000
; #@! TA.AperFunction,Plated,PTH,ComponentDrill
T4C1.100
%
G90
G05
T1
X46139Y-26360
X51119Y-73994
X51563Y-77443
X56112Y-73796
X63068Y-88997
X98000Y-46500
T2
X39000Y-38000
X39000Y-40500
X42250Y-46730
X42690Y-87050
X42690Y-91100
X42690Y-95150
X42690Y-103250
X42690Y-107300
X43000Y-34500
X44750Y-46730
X45500Y-34500
X50310Y-87050
X50310Y-91100
X50310Y-95150
X50310Y-103250
X50310Y-107300
X53910Y-91100
X53910Y-103250
X56410Y-91100
X56410Y-103250
X57500Y-29000
X57500Y-64500
X57500Y-67000
X59000Y-33500
X60000Y-29000
X60880Y-23185
X61500Y-33500
X65760Y-23185
X79000Y-28000
X81500Y-28000
X83000Y-90750
X83000Y-93250
X89880Y-71180
X89880Y-73720
X89880Y-76260
X89880Y-78800
X89880Y-81340
X89880Y-83880
X89880Y-86420
X89880Y-88960
X89880Y-91500
X89880Y-94040
X89880Y-96580
X89880Y-99120
X89880Y-101660
X89880Y-104200
X97500Y-71180
X97500Y-73720
X97500Y-76260
X97500Y-78800
X97500Y-81340
X97500Y-83880
X97500Y-86420
X97500Y-88960
X97500Y-91500
X97500Y-94040
X97500Y-96580
X97500Y-99120
X97500Y-101660
X97500Y-104200
X102000Y-86500
X103500Y-94310
X109620Y-86500
X111120Y-94310
T3
X72000Y-68960
X72000Y-71500
X72000Y-74040
X72000Y-76580
X72000Y-79120
X72000Y-81660
T4
X43140Y-111350
X43140Y-115850
X49640Y-111350
X49640Y-115850
T3
G00X34000Y-25500
M15
G01X34000Y-27500
M16
G05
G00X36000Y-31200
M15
G01X38000Y-31200
M16
G05
G00X40000Y-25500
M15
G01X40000Y-27500
M16
G05
M30
